<?xml version="1.0" encoding="UTF-8"?>
<svg xmlns="http://www.w3.org/2000/svg" xmlns:xlink="http://www.w3.org/1999/xlink" viewBox="0 0 480 480" width="480px" height="480px">
<g id="surface106294969">
<rect x="0" y="0" width="480" height="480" style="fill:rgb(88.627452%,88.627452%,88.627452%);fill-opacity:1;stroke:none;"/>
<path style=" stroke:none;fill-rule:nonzero;fill:rgb(25.882354%,25.882354%,25.882354%);fill-opacity:1;" d="M 320 340 L 160 340 L 80 470 L 400 470 Z M 320 340 "/>
<path style=" stroke:none;fill-rule:nonzero;fill:rgb(48.235294%,12.156863%,63.529414%);fill-opacity:1;" d="M 160 320 L 320 320 L 320 470 L 160 470 Z M 160 320 "/>
<path style=" stroke:none;fill-rule:nonzero;fill:rgb(62.7451%,32.549021%,5.490196%);fill-opacity:1;" d="M 290 390 L 240 470 L 190 390 Z M 120 160 C 120 160 94 150 80 150 C 66 150 70 180 70 180 C 70 180 78 257 90 260 L 100 270 Z M 379 270 L 389 260 C 402 257 409 180 409 180 C 409 180 413 150 399 150 C 385 150 350 160 350 160 Z M 379 270 "/>
<path style=" stroke:none;fill-rule:nonzero;fill:rgb(47.843137%,22.745098%,5.882353%);fill-opacity:1;" d="M 81 174 C 81 174 88 160 110 190 C 130 219 90 190 90 190 L 90 230 C 90 230 77 179 81 174 Z M 398 174 C 398 174 391 160 369 190 C 349 219 389 190 389 190 L 389 230 C 389 230 403 179 398 174 Z M 398 174 "/>
<path style=" stroke:none;fill-rule:nonzero;fill:rgb(75.686276%,43.137255%,7.843138%);fill-opacity:1;" d="M 329 40 C 307 26 270 10 240 10 C 210 10 172 26 150 40 C 120 60 100 83 100 120 C 100 183 100 210 100 210 C 100 210 100 239 100 290 C 100 327 148 363 174 386 C 184 395 197 400 211 400 L 270 400 C 284 400 297 395 307 386 C 333 363 379 327 379 290 C 379 239 379 210 379 210 C 379 210 379 183 379 120 C 379 83 360 60 329 40 Z M 329 40 "/>
<path style=" stroke:none;fill-rule:nonzero;fill:rgb(62.7451%,32.549021%,5.490196%);fill-opacity:1;" d="M 190 300 L 290 300 L 290 320 L 190 320 Z M 360 190 L 340 190 C 340 183 327 174 319 170 L 262 180 L 259 160 L 322 150 L 325 151 C 328 152 360 167 360 190 Z M 140 190 L 120 190 C 120 167 152 152 156 151 L 159 150 L 222 160 L 219 180 L 162 170 C 152 175 140 184 140 190 Z M 140 190 "/>
<path style=" stroke:none;fill-rule:nonzero;fill:rgb(25.882354%,25.882354%,25.882354%);fill-opacity:1;" d="M 340 200 C 340 183 320 170 295 170 C 270 170 250 183 250 200 C 250 217 270 230 295 230 C 320 230 340 217 340 200 Z M 340 200 "/>
<path style=" stroke:none;fill-rule:nonzero;fill:rgb(25.882354%,25.882354%,25.882354%);fill-opacity:1;" d="M 210 190 L 270 190 L 270 200 L 210 200 Z M 210 190 "/>
<path style=" stroke:none;fill-rule:nonzero;fill:rgb(25.882354%,25.882354%,25.882354%);fill-opacity:1;" d="M 230 200 C 230 183 210 170 185 170 C 160 170 140 183 140 200 C 140 217 160 230 185 230 C 210 230 230 217 230 200 Z M 230 200 "/>
<path style=" stroke:none;fill-rule:nonzero;fill:rgb(69.01961%,74.509805%,77.254903%);fill-opacity:1;" d="M 320 210 C 317 210 314 209 312 206 C 308 201 302 200 300 200 C 294 200 290 196 290 190 C 290 184 294 180 300 180 C 308 180 320 184 328 194 C 331 198 331 205 326 208 C 324 209 322 210 320 210 Z M 210 210 C 207 210 204 209 202 206 C 198 201 192 200 190 200 C 184 200 180 196 180 190 C 180 184 184 180 190 180 C 198 180 210 184 218 194 C 221 198 221 205 216 208 C 214 209 212 210 210 210 Z M 210 210 "/>
</g>
</svg>
